<svg enable-background="new 0 0 512 512" viewBox="0 0 512 512" xmlns="http://www.w3.org/2000/svg"><circle cx="250.1" cy="255.9" fill="#103975" r="218"/><path d="m318.5 91.4h51.4c5.4 0 9.8 4.4 9.8 9.8v313.5c0 5.4-4.4 9.8-9.8 9.8h-239.6c-5.4 0-9.8-4.4-9.8-9.8v-313.5c0-5.4 4.4-9.8 9.8-9.8h51.4" fill="#fff" stroke="#202020" stroke-miterlimit="10" stroke-width="9"/><path d="m286.6 105.4h-72.9c-4.2 0-7.6-3.4-7.6-7.6v-12.8c0-4.2 3.4-7.6 7.6-7.6h72.8c4.2 0 7.6 3.4 7.6 7.6v12.9c.1 4.2-3.4 7.5-7.5 7.5z" fill="none" stroke="#202020" stroke-miterlimit="10" stroke-width="7"/><path d="m175.8 313.1-115.5 109.2" fill="none" stroke="#ffe161" stroke-miterlimit="10" stroke-width="11"/><path d="m243.3 346.6c-25.7 0-51.4-10-70.5-30-37.4-38.9-36.3-101 2.6-138.4s101-36.3 138.4 2.6 36.3 101-2.6 138.4c-19 18.3-43.5 27.4-67.9 27.4zm-.1-184.7c-21.7 0-43.4 8.1-60.3 24.3-34.5 33.2-35.6 88.4-2.3 122.9 33.2 34.5 88.4 35.6 122.9 2.3 34.5-33.2 35.6-88.4 2.3-122.9-17-17.7-39.8-26.6-62.6-26.6z" fill="#202020"/><path d="m59.4 424.2c-4.4-4.6-4.3-11.9.3-16.4l80.5-77.5c4.6-4.4 11.9-4.3 16.4.3 4.4 4.6 4.3 11.9-.3 16.4l-80.5 77.5c-4.7 4.5-12 4.3-16.4-.3z" fill="#202020"/><path d="m214 220.1 22.2 6c4.3 1.2 8.2-2.8 7.1-7.1l-6-22.2" fill="none" stroke="#202020" stroke-miterlimit="10" stroke-width="7"/><path d="m294.9 256.4-20.3-5.4c-3.9-1.1-7.5 2.5-6.5 6.5l5.4 20.3" fill="none" stroke="#202020" stroke-miterlimit="10" stroke-width="7"/><circle cx="430.1" cy="280.8" fill="#ffe161" r="3"/><circle cx="442.4" cy="285.9" fill="#ffe161" r="5"/><circle cx="422.9" cy="295.2" fill="#ffe161" r="4.2"/><circle cx="217.1" cy="51.1" fill="#ffe161" r="3"/><circle cx="185.1" cy="56.1" fill="#ffe161" r="5"/><circle cx="204.4" cy="56.1" fill="#ffe161" r="4.2"/><circle cx="14.4" cy="152.2" fill="#103975" r="3"/><circle cx="27.8" cy="175.2" fill="#103975" r="5"/><ellipse cx="38.8" cy="159.7" fill="#103975" rx="4.2" ry="4.2"/><circle cx="85.6" cy="356.3" fill="#ffe161" r="3"/><circle cx="87.6" cy="333.5" fill="#ffe161" r="5"/><circle cx="96.8" cy="341" fill="#ffe161" r="4.2"/><g fill="#103975"><circle cx="420.5" cy="106.1" r="3"/><circle cx="438" cy="91.4" r="5"/><circle cx="439.1" cy="103.2" r="4.2"/><circle cx="434.5" cy="432" r="3"/><circle cx="425.3" cy="411" r="5"/><circle cx="441.6" cy="397.1" r="4.2"/></g></svg>