<svg enable-background="new 0 0 512 512" viewBox="0 0 512 512" xmlns="http://www.w3.org/2000/svg"><circle cx="250.1" cy="255.9" fill="#103975" r="218"/><circle cx="430.1" cy="280.8" fill="#ffe161" r="3"/><circle cx="442.4" cy="285.9" fill="#ffe161" r="5"/><circle cx="422.9" cy="295.2" fill="#ffe161" r="4.2"/><circle cx="217.1" cy="51.1" fill="#ffe161" r="3"/><circle cx="185.1" cy="56.1" fill="#ffe161" r="5"/><circle cx="204.4" cy="56.1" fill="#ffe161" r="4.2"/><circle cx="14.4" cy="152.2" fill="#103975" r="3"/><circle cx="27.8" cy="175.2" fill="#103975" r="5"/><ellipse cx="38.8" cy="159.7" fill="#103975" rx="4.2" ry="4.2"/><circle cx="85.6" cy="356.3" fill="#ffe161" r="3"/><circle cx="87.6" cy="333.5" fill="#ffe161" r="5"/><circle cx="96.8" cy="341" fill="#ffe161" r="4.2"/><g fill="#103975"><circle cx="420.5" cy="106.1" r="3"/><circle cx="438" cy="91.4" r="5"/><circle cx="439.1" cy="103.2" r="4.2"/><circle cx="434.5" cy="432" r="3"/><circle cx="425.3" cy="411" r="5"/><circle cx="441.6" cy="397.1" r="4.2"/></g><path d="m432.4 146.9h-152.5c-10.9 0-19.8-8.8-19.8-19.8v-48c0-10.9 8.8-19.8 19.8-19.8h152.6c10.9 0 19.8 8.8 19.8 19.8v48c-.1 10.9-9 19.8-19.9 19.8z" fill="#ffe161"/><path d="m291.1 115.2c-3.2 0-6.3-1.3-8.6-3.5-2.3-2.3-3.5-5.3-3.5-8.6s1.3-6.3 3.5-8.6c2.3-2.3 5.3-3.5 8.6-3.5s6.3 1.3 8.6 3.5c2.3 2.3 3.5 5.3 3.5 8.6s-1.3 6.3-3.5 8.6c-2.3 2.3-5.3 3.5-8.6 3.5zm0-21.2c-2.4 0-4.7.9-6.4 2.7-1.7 1.7-2.7 4-2.7 6.4s.9 4.7 2.7 6.4c1.7 1.7 4 2.7 6.4 2.7s4.7-.9 6.4-2.7c1.7-1.7 2.7-4 2.7-6.4s-.9-4.7-2.7-6.4c-1.6-1.8-3.9-2.7-6.4-2.7z" fill="#393939"/><path d="m317.1 101.6h109v3h-109z" fill="#393939"/><path d="m326.4 396.9h-152.6c-10.9 0-19.8-8.8-19.8-19.8v-28.9c0-10.9 8.8-19.8 19.8-19.8h152.6c10.9 0 19.8 8.8 19.8 19.8v28.9c-.1 11-8.9 19.8-19.8 19.8z" fill="#ffe161"/><path d="m188.8 374.8c-3.2 0-6.3-1.3-8.6-3.5-2.3-2.3-3.5-5.3-3.5-8.6s1.3-6.3 3.5-8.6c2.3-2.3 5.3-3.5 8.6-3.5s6.3 1.3 8.6 3.5c2.3 2.3 3.5 5.3 3.5 8.6s-1.3 6.3-3.5 8.6c-2.3 2.3-5.3 3.5-8.6 3.5zm0-21.2c-2.4 0-4.7.9-6.4 2.7-1.7 1.7-2.7 4-2.7 6.4s.9 4.7 2.7 6.4c1.7 1.7 4 2.7 6.4 2.7s4.7-.9 6.4-2.7c1.7-1.7 2.7-4 2.7-6.4s-.9-4.7-2.7-6.4c-1.6-1.8-3.9-2.7-6.4-2.7z" fill="#393939"/><path d="m214.8 361.2h109.5v3h-109.5z" fill="#393939"/><path d="m240.3 283.8h-152.5c-10.9 0-19.8-8.8-19.8-19.8v-76.2c0-10.9 8.8-19.8 19.8-19.8h152.6c10.9 0 19.8 8.8 19.8 19.8v76.2c-.1 11-8.9 19.8-19.9 19.8z" fill="#ffe161"/><path d="m102.9 238.1c-3.1 0-6.2-1.2-8.6-3.5-4.7-4.7-4.7-12.4 0-17.1s12.4-4.7 17.1 0 4.7 12.4 0 17.1c-2.3 2.3-5.4 3.5-8.5 3.5zm0-21.3c-2.3 0-4.7.9-6.4 2.7-3.6 3.6-3.6 9.3 0 12.9s9.3 3.6 12.9 0 3.6-9.3 0-12.9c-1.8-1.8-4.2-2.7-6.5-2.7z" fill="#393939"/><path d="m128.9 224.5h103.9v3h-103.9z" fill="#393939"/></svg>